<svg xmlns="http://www.w3.org/2000/svg" style="display: none;">
    <symbol id="logo" viewBox="0 0 470.6667 64" style="enable-background:new 0 0 470.6667 64;" xml:space="preserve" aria-labelledby="title-logo" aria-describedby="desc-logo" role="img">
        <style type="text/css">
            .logo-0{fill:#FFFFFF;}
        </style>
        <title id="title-logo">Octopus Energy logo</title>
        <desc id="desc-logo">Octopus Energy logo</desc>
        <g>
            <path class="logo-0" d="M40.7494,26.6719c0,10.5665-7.762,19.1323-19.7865,19.1323c-10.9278,0-19.3852-8.3067-19.3852-18.8732
                c0-11.1137,8.6585-18.874,19.5862-18.874S40.7494,16.1054,40.7494,26.6719z M21.1635,38.6823
                c6.4878,0,11.1107-5.2614,11.1107-11.7517S28.1302,15.179,21.1635,15.179c-6.8295,0-11.1107,5.2614-11.1107,11.7517
                S14.6305,38.6823,21.1635,38.6823z"/>
            <path class="logo-0" d="M60.6469,8.6566c-14.5545,1.0389-17.8754,14.5651-17.521,18.4972c-0.202,5.941,3.954,18.6504,20.0305,18.6574
                c2.1177-0.0388,4.0577-0.2295,5.8288-0.5567l-0.0008-7.2093c-1.541,0.2712-3.4009,0.4422-5.6453,0.5015
                c-7.5025,0.1881-11.7668-5.9688-11.7379-11.3946c0-6.2931,5.1475-11.4602,11.7379-11.3946l13.0035-0.0029l0.032,17.8039
                c0,0-0.9385,15.0845,18.1288,11.9174v-7.183c-10.5729,2.2777-10.0019-4.3752-10.0019-4.3752V15.7674h10.0019V8.6455H84.5014V0.2425
                h-8.1268v8.4031L60.6469,8.6566z"/>
        </g>
    </symbol>
    <symbol id="cart" viewBox="0 0 576 512">
        <path d="M171.7 191.1H404.3L322.7 35.07C316.6 23.31 321.2 8.821 332.9 2.706C344.7-3.409 359.2 1.167 365.3 12.93L458.4 191.1H544C561.7 191.1 576 206.3 576 223.1C576 241.7 561.7 255.1 544 255.1L492.1 463.5C484.1 492 459.4 512 430 512H145.1C116.6 512 91 492 83.88 463.5L32 255.1C14.33 255.1 0 241.7 0 223.1C0 206.3 14.33 191.1 32 191.1H117.6L210.7 12.93C216.8 1.167 231.3-3.409 243.1 2.706C254.8 8.821 259.4 23.31 253.3 35.07L171.7 191.1zM191.1 303.1C191.1 295.1 184.8 287.1 175.1 287.1C167.2 287.1 159.1 295.1 159.1 303.1V399.1C159.1 408.8 167.2 415.1 175.1 415.1C184.8 415.1 191.1 408.8 191.1 399.1V303.1zM271.1 303.1V399.1C271.1 408.8 279.2 415.1 287.1 415.1C296.8 415.1 304 408.8 304 399.1V303.1C304 295.1 296.8 287.1 287.1 287.1C279.2 287.1 271.1 295.1 271.1 303.1zM416 303.1C416 295.1 408.8 287.1 400 287.1C391.2 287.1 384 295.1 384 303.1V399.1C384 408.8 391.2 415.1 400 415.1C408.8 415.1 416 408.8 416 399.1V303.1z"/>
    </symbol>
</svg>